<svg width="71" height="41" viewBox="0 0 71 41" fill="none" xmlns="http://www.w3.org/2000/svg">
<path d="M18.0714 28.071V11.6364H24.756V40H18.2745V34.9588H17.979C17.3389 36.5469 16.2863 37.8456 14.8214 38.8551C13.3687 39.8646 11.5775 40.3693 9.4478 40.3693C7.5889 40.3693 5.94543 39.9569 4.5174 39.1321C3.10168 38.295 1.99373 37.0824 1.19354 35.4943C0.393348 33.8939 -0.00674695 31.9612 -0.00674695 29.696V11.6364H6.67791V28.6619C6.67791 30.4593 7.17034 31.8873 8.15519 32.946C9.14003 34.0047 10.4326 34.5341 12.033 34.5341C13.0179 34.5341 13.9719 34.294 14.8952 33.8139C15.8185 33.3338 16.5756 32.6198 17.1665 31.6719C17.7698 30.7116 18.0714 29.5114 18.0714 28.071ZM63.3175 40V11.6364H70.0021V40H63.3175ZM66.6783 7.6108C65.6196 7.6108 64.7086 7.25994 63.9453 6.55824C63.1821 5.84422 62.8004 4.98863 62.8004 3.99148C62.8004 2.98201 63.1821 2.12642 63.9453 1.42471C64.7086 0.710699 65.6196 0.353692 66.6783 0.353692C67.7493 0.353692 68.6603 0.710699 69.4112 1.42471C70.1745 2.12642 70.5561 2.98201 70.5561 3.99148C70.5561 4.98863 70.1745 5.84422 69.4112 6.55824C68.6603 7.25994 67.7493 7.6108 66.6783 7.6108Z" fill="#E16262"/>
<path d="M38.3146 23.3807V40H31.63V11.6364H38.0192V16.456H38.3516C39.004 14.8679 40.0443 13.6061 41.4723 12.6705C42.9126 11.7348 44.6915 11.267 46.8089 11.267C48.7663 11.267 50.4714 11.6856 51.924 12.5227C53.389 13.3598 54.5215 14.5724 55.3217 16.1605C56.1342 17.7486 56.5343 19.6752 56.522 21.9403V40H49.8374V22.9744C49.8374 21.0786 49.3449 19.5952 48.3601 18.5241C47.3875 17.4531 46.0395 16.9176 44.3161 16.9176C43.1465 16.9176 42.1063 17.1761 41.1953 17.6932C40.2966 18.1979 39.5888 18.9304 39.0717 19.8906C38.567 20.8509 38.3146 22.0142 38.3146 23.3807Z" fill="black"/>
</svg>
